<svg xmlns="http://www.w3.org/2000/svg" width="1024" height="768" viewBox="0 0 1024 768"><title>海底水族箱</title><g stroke="#000" stroke-width="12" stroke-linecap="round" stroke-linejoin="round" fill="#fff"><rect x="110" y="130" width="805" height="515" rx="36"/><path d="M110 535 Q245 495 360 535 T610 535 T915 535" fill="none"/><path d="M230 310 L165 250 V395 L230 354 Q340 460 460 338 Q352 218 230 310Z" fill="#fff"/><circle cx="397" cy="323" r="10" fill="#000" stroke="none"/><path d="M600 310 L570 245 H730 L700 310 Q795 430 650 475 Q520 415 600 310Z" fill="#fff"/><ellipse cx="650" cy="365" rx="50" ry="35"/><circle cx="702" cy="350" r="10" fill="#000" stroke="none"/><path d="M255 625 Q175 590 228 528 Q320 508 340 625Z" fill="#fff"/><path d="M768 625 Q740 510 810 470 Q855 515 850 625Z" fill="#fff"/><ellipse cx="487" cy="219" rx="32" ry="32"/><ellipse cx="790" cy="228" rx="42" ry="42"/></g></svg>