<svg xmlns="http://www.w3.org/2000/svg" width="1024" height="768" viewBox="0 0 1024 768"><title>大翅膀蝴蝶</title><g stroke="#000" stroke-width="12" stroke-linecap="round" stroke-linejoin="round" fill="#fff"><path d="M480 390 C240 80 110 250 190 440 Q90 615 300 620 Q410 580 480 440Z" fill="#fff"/><path d="M544 390 C784 80 914 250 834 440 Q934 615 724 620 Q614 580 544 440Z" fill="#fff"/><ellipse cx="320" cy="350" rx="85" ry="100"/><ellipse cx="705" cy="350" rx="85" ry="100"/><ellipse cx="300" cy="540" rx="60" ry="45"/><ellipse cx="724" cy="540" rx="60" ry="45"/><ellipse cx="512" cy="430" rx="35" ry="150"/><ellipse cx="512" cy="268" rx="42" ry="42"/><circle cx="498" cy="263" r="7" fill="#000" stroke="none"/><circle cx="526" cy="263" r="7" fill="#000" stroke="none"/><path d="M491 231 Q448 170 418 200 M533 231 Q576 170 606 200" fill="none"/></g></svg>